<svg xmlns="http://www.w3.org/2000/svg" viewBox="0 0 100 100" width="100" height="100">
  <!-- Background Circle -->
  <circle cx="50" cy="50" r="48" fill="#25D366" />
  
  <!-- WhatsApp-like Logo -->
  <path fill="#FFFFFF" d="M50,18c-17.7,0-32,14.3-32,32c0,6.9,2.2,13.3,5.9,18.5L20,82l14.2-3.7C39.3,81.3,44.4,83,50,83
    c17.7,0,32-14.3,32-32S67.7,18,50,18z M65.7,58.9c-0.8,2.2-4.5,4.3-6.3,4.4c-1.7,0.1-1.9,1.3-11.9-2.5c-10-3.8-16.5-13.4-16.9-14
    c-0.5-0.6-3.9-5.3-3.9-10.1c0-4.8,2.5-7.2,3.4-8.2c0.9-1,1.9-1.2,2.5-1.2c0.6,0,1.2,0,1.7,0c0.6,0,1.3-0.2,2.1,1.6
    c0.8,1.8,2.7,6.2,2.9,6.7c0.2,0.5,0.4,1,0.1,1.6c-0.3,0.6-0.5,0.9-1,1.4c-0.5,0.5-1,1.1-1.4,1.5c-0.5,0.5-1,0.9-0.5,1.8
    c0.5,0.9,2.2,3.9,4.7,6.3c3.2,3.1,6,4.2,6.9,4.6c0.9,0.4,1.4,0.4,1.9-0.2c0.5-0.6,2.2-2.6,2.8-3.5c0.6-0.9,1.2-0.7,2-0.4
    c0.8,0.3,5.1,2.4,6,2.8c0.9,0.4,1.5,0.6,1.7,0.9C66.5,55.8,66.4,56.7,65.7,58.9z"/>
  
  <!-- Automation Arrow -->
  <path fill="#FFFFFF" d="M72,40c-1.1,0-2,0.9-2,2v6H58c-1.1,0-2,0.9-2,2s0.9,2,2,2h12v6c0,1.1,0.9,2,2,2c0.5,0,1-0.2,1.4-0.6
    l10-10c0.8-0.8,0.8-2,0-2.8l-10-10C73,40.2,72.5,40,72,40z"/>
</svg>
